<?xml version="1.0" standalone="no"?>
<!DOCTYPE svg PUBLIC "-//W3C//DTD SVG 20010904//EN"
 "http://www.w3.org/TR/2001/REC-SVG-20010904/DTD/svg10.dtd">
<svg version="1.0" xmlns="http://www.w3.org/2000/svg"
 width="933.000000pt" height="267.000000pt" viewBox="0 0 933.000000 267.000000"
 preserveAspectRatio="xMidYMid meet">

<g transform="translate(0.000000,267.000000) scale(0.100000,-0.100000)"
fill="#000000" stroke="none">
<path d="M2475 2660 c3 -5 12 -7 20 -3 21 7 19 13 -6 13 -11 0 -18 -4 -14 -10z"/>
<path d="M3822 2612 c-9 -6 -12 -44 -10 -153 l3 -144 90 0 90 0 0 150 0 150
-80 3 c-44 1 -86 -2 -93 -6z"/>
<path d="M7104 2607 c-2 -7 -4 -186 -2 -398 l3 -384 33 -10 c29 -8 41 -34 13
-27 -7 1 -21 -2 -31 -8 -16 -8 -20 -21 -20 -61 0 -35 4 -51 15 -55 27 -11 16
-25 -17 -22 -27 3 -33 9 -47 48 -8 25 -17 47 -18 49 -6 9 -33 -23 -33 -38 0
-30 -56 -17 -93 21 -49 48 -57 70 -56 137 1 50 5 62 20 66 19 6 27 35 9 35 -5
0 -20 11 -33 24 -13 13 -33 27 -45 30 -12 4 -26 15 -32 25 -5 10 -24 24 -42
32 -18 7 -35 15 -38 18 -8 9 -74 31 -94 31 -9 0 -27 6 -39 14 -13 8 -35 12
-54 9 -32 -5 -33 -7 -32 -52 1 -46 -13 -89 -34 -102 -5 -4 16 -12 48 -19 32
-7 67 -21 78 -31 12 -10 27 -19 34 -19 7 0 13 -4 13 -9 0 -5 13 -14 30 -21 32
-13 98 -74 145 -134 17 -21 35 -44 40 -50 14 -14 45 -97 45 -118 0 -9 5 -18
12 -20 18 -6 18 -310 1 -315 -7 -3 -13 -15 -13 -29 0 -44 -44 -135 -87 -182
-7 -7 -13 -17 -13 -22 0 -12 -120 -130 -132 -130 -5 0 -18 -9 -30 -20 -12 -11
-28 -20 -35 -20 -7 0 -13 -4 -13 -8 0 -4 -21 -14 -47 -22 -62 -19 -326 -21
-345 -2 -6 6 -20 12 -30 12 -10 0 -18 5 -18 10 0 6 -6 10 -13 10 -7 0 -22 8
-33 18 -10 9 -36 26 -57 37 -20 11 -40 28 -43 37 -3 10 -12 18 -21 18 -8 0
-17 9 -20 20 -3 10 -14 22 -24 25 -10 4 -19 12 -19 19 0 8 -7 19 -15 26 -19
16 -69 119 -85 175 -20 69 -3 375 20 375 4 0 10 10 13 23 10 45 32 92 50 105
9 7 17 18 17 23 0 5 11 21 25 35 14 14 25 29 25 34 0 6 5 10 10 10 6 0 26 16
46 35 19 19 41 35 49 35 8 0 15 4 15 8 0 13 76 48 142 66 31 9 89 16 130 16
l74 0 13 48 c8 26 19 53 24 60 8 10 7 16 -4 23 -12 8 -12 10 1 18 8 6 11 14 6
18 -11 11 -247 6 -271 -6 -11 -6 -46 -17 -77 -26 -32 -9 -64 -23 -72 -31 -8
-8 -21 -14 -28 -14 -16 -1 -52 -26 -130 -92 -36 -30 -62 -35 -75 -15 -4 6 -10
152 -13 322 l-5 310 -95 0 -95 0 -3 -497 c-1 -321 -6 -498 -12 -498 -6 0 -10
7 -10 16 0 31 -33 116 -48 122 -21 8 -162 149 -162 162 0 5 7 10 15 10 8 0 15
9 15 20 0 11 -4 20 -10 20 -5 0 -19 10 -32 23 -13 12 -35 28 -50 36 -16 8 -28
18 -28 23 0 12 -120 72 -165 81 -22 5 -60 9 -85 10 l-45 2 3 -42 c1 -24 -2
-43 -8 -43 -5 0 -10 -9 -10 -20 0 -11 -4 -20 -10 -20 -5 0 -10 -6 -10 -14 0
-15 10 -19 70 -32 32 -6 91 -40 98 -56 2 -5 10 -8 18 -8 14 0 37 -17 86 -62
16 -16 33 -28 38 -28 6 0 10 -4 10 -8 0 -5 11 -22 25 -38 14 -16 31 -41 38
-56 6 -16 15 -28 19 -28 5 0 8 -9 8 -20 0 -11 5 -20 10 -20 6 0 10 -8 10 -18
0 -10 4 -22 8 -27 5 -6 14 -52 21 -102 10 -75 10 -111 0 -183 -7 -49 -16 -90
-19 -90 -4 0 -13 -23 -20 -50 -7 -28 -17 -50 -22 -50 -4 0 -8 -7 -8 -15 0 -8
-4 -15 -10 -15 -5 0 -10 -6 -10 -13 0 -8 -10 -26 -22 -42 -37 -45 -139 -145
-149 -145 -5 0 -18 -9 -29 -20 -11 -11 -27 -20 -35 -20 -8 0 -15 -4 -15 -10 0
-5 -8 -10 -18 -10 -10 0 -24 -6 -30 -12 -19 -19 -283 -17 -342 2 -25 8 -47 17
-50 20 -3 3 -18 12 -35 20 -16 8 -40 25 -52 37 -12 13 -27 23 -33 23 -5 0 -10
5 -10 10 0 6 -5 10 -11 10 -11 0 -23 12 -64 65 -11 14 -29 36 -40 48 -27 31
-45 64 -45 82 0 8 -3 15 -8 15 -30 0 -53 257 -32 365 19 104 22 115 29 115 3
0 12 15 20 33 8 17 17 34 20 37 10 9 31 44 38 63 4 12 12 17 25 14 15 -4 18
-2 14 10 -7 16 59 92 79 93 6 0 17 9 25 20 8 11 22 20 32 20 10 0 18 5 18 10
0 6 9 10 20 10 11 0 20 4 20 8 0 14 94 34 188 39 90 6 92 6 98 32 3 14 9 34
15 43 5 10 9 35 9 57 0 32 -4 41 -21 46 -34 11 -227 -5 -260 -22 -17 -8 -48
-17 -70 -20 -21 -3 -39 -10 -39 -14 0 -5 -7 -9 -15 -9 -8 0 -15 -4 -15 -9 0
-5 -13 -11 -29 -14 -16 -3 -52 -29 -81 -57 -69 -67 -88 -77 -109 -56 -14 15
-17 58 -21 329 l-5 312 -90 0 -90 0 -3 -175 c-2 -120 -6 -176 -14 -181 -9 -6
-9 -13 0 -31 9 -17 13 -212 15 -793 l2 -770 70 -3 c117 -5 115 -7 115 103 0
102 7 114 42 70 11 -14 23 -25 28 -25 4 0 24 -16 44 -35 20 -19 50 -42 68 -51
18 -9 35 -20 38 -23 3 -4 33 -16 68 -26 34 -11 62 -23 62 -27 0 -5 11 -8 25
-8 13 0 55 -5 93 -12 54 -9 90 -9 175 2 59 8 107 17 107 22 0 4 9 8 21 8 23 0
122 30 129 40 3 4 24 17 48 30 23 13 42 27 42 32 0 4 7 8 15 8 8 0 20 9 27 20
7 11 18 20 24 20 6 0 26 16 45 36 19 20 44 46 55 58 12 13 25 32 28 44 4 12
13 22 19 22 14 1 68 107 67 132 0 9 5 20 10 23 6 3 10 17 10 31 0 13 5 24 10
24 6 0 10 -89 10 -248 0 -180 3 -251 12 -260 16 -16 160 -16 176 0 8 8 12 45
12 100 0 48 2 88 5 88 3 0 16 -9 28 -21 12 -12 38 -33 57 -47 19 -15 42 -35
51 -44 9 -10 23 -18 31 -18 8 0 23 -8 34 -18 21 -20 100 -52 127 -52 9 0 17
-4 17 -9 0 -12 93 -25 185 -25 98 1 205 14 205 25 0 5 17 9 38 9 20 0 46 7 56
15 11 8 28 15 38 15 10 0 18 4 18 9 0 5 17 16 38 24 21 8 44 22 51 31 8 9 17
16 22 16 5 0 23 14 41 30 17 16 34 30 38 30 9 0 70 58 70 67 0 3 15 24 34 47
18 23 36 51 40 63 4 13 14 29 21 37 8 8 16 26 19 41 3 15 12 37 20 49 8 12 17
49 20 82 15 136 17 143 32 137 7 -3 14 -11 14 -19 0 -8 5 -14 10 -14 6 0 10
11 10 25 0 20 -5 25 -26 25 -16 0 -24 5 -22 13 7 19 38 20 58 2 11 -10 20 -12
24 -6 4 5 2 12 -4 16 -19 12 -10 33 23 49 32 16 32 16 5 16 -15 0 -33 7 -42
15 -15 16 -12 45 6 45 5 0 27 17 49 38 38 38 51 72 28 72 -11 0 -10 20 7 84 6
24 4 26 -25 26 -24 0 -31 -4 -31 -19 0 -33 -11 -51 -31 -51 -10 0 -19 5 -19
10 0 6 9 10 21 10 18 0 21 5 17 35 -4 38 -2 39 54 36 32 -2 38 1 43 21 3 13 4
208 3 433 l-3 410 -88 3 c-67 2 -89 0 -93 -11z m-497 -529 c-3 -7 -5 -2 -5 12
0 14 2 19 5 13 2 -7 2 -19 0 -25z m623 -288 c0 -11 -7 -20 -15 -20 -8 0 -15 9
-15 20 0 11 7 20 15 20 8 0 15 -9 15 -20z"/>
<path d="M6992 2490 c0 -14 2 -19 5 -12 2 6 2 18 0 25 -3 6 -5 1 -5 -13z"/>
<path d="M6735 2343 l-30 -28 28 -3 c14 -2 37 4 49 12 12 9 17 16 10 16 -6 0
-12 7 -12 15 0 22 -11 19 -45 -12z"/>
<path d="M1065 2203 c-16 -3 -33 -11 -38 -18 -4 -7 -21 -16 -37 -20 -17 -4
-30 -10 -30 -14 0 -4 -12 -14 -27 -22 -65 -32 -153 -141 -153 -188 0 -10 -5
-21 -12 -23 -20 -7 -24 -202 -5 -231 8 -12 18 -37 22 -56 7 -35 109 -151 132
-151 7 0 13 -4 13 -10 0 -5 7 -10 15 -10 8 0 15 -4 15 -8 0 -5 18 -14 40 -21
22 -6 40 -16 40 -20 0 -5 20 -11 45 -14 25 -2 54 -11 63 -20 9 -8 28 -18 42
-22 39 -11 80 -29 80 -36 0 -3 18 -14 40 -25 22 -10 40 -25 40 -31 0 -7 4 -13
9 -13 5 0 13 -10 17 -22 4 -13 14 -28 23 -35 24 -17 23 -204 -1 -230 -87 -91
-121 -113 -178 -113 -17 0 -30 -4 -30 -10 0 -5 -16 -10 -35 -10 -19 0 -35 4
-35 9 0 5 -18 11 -40 15 -23 3 -43 13 -46 21 -4 8 -11 15 -18 15 -12 1 -56 35
-56 45 0 3 -9 15 -20 27 -11 12 -20 28 -20 35 0 7 -4 13 -10 13 -5 0 -10 13
-10 30 0 16 -5 50 -12 75 l-12 45 -92 0 -91 0 5 -77 c3 -43 9 -79 13 -81 5 -2
9 -12 9 -22 0 -10 4 -21 9 -24 4 -3 11 -18 14 -33 3 -16 15 -39 26 -52 12 -13
21 -30 21 -37 0 -8 9 -19 20 -26 11 -7 20 -18 20 -25 0 -6 9 -14 19 -18 11 -3
22 -12 25 -20 3 -8 22 -21 43 -30 20 -9 40 -20 43 -25 7 -12 122 -30 193 -30
83 0 201 20 210 35 4 8 19 16 35 20 39 8 152 101 152 124 0 6 4 11 9 11 5 0
13 10 17 23 3 12 14 30 23 41 13 15 17 47 19 173 4 152 4 155 -25 211 -15 31
-43 72 -60 90 -18 18 -33 37 -33 42 0 6 -8 10 -19 10 -10 0 -24 7 -31 16 -17
19 -88 54 -112 54 -10 0 -18 5 -18 10 0 6 -11 10 -24 10 -14 0 -28 5 -31 10
-3 6 -19 10 -36 10 -16 0 -29 5 -29 10 0 6 -12 10 -27 10 -16 0 -37 7 -47 15
-11 8 -26 15 -34 15 -7 0 -40 27 -73 60 l-59 60 0 73 c0 53 6 85 20 114 20 43
62 83 86 83 8 0 14 4 14 8 0 4 27 14 60 20 49 11 68 10 98 0 20 -7 39 -15 42
-19 3 -3 20 -11 38 -18 17 -8 32 -18 32 -23 0 -5 7 -16 15 -24 8 -9 15 -26 15
-39 0 -13 8 -37 18 -54 17 -31 18 -31 100 -31 50 0 82 4 82 10 0 6 -7 13 -15
16 -8 4 -15 12 -15 20 0 8 -4 14 -9 14 -11 0 -21 38 -14 56 3 8 9 14 15 14 5
0 15 6 23 13 10 11 10 18 -1 38 -7 13 -13 30 -14 38 0 7 -11 22 -25 33 -14 11
-25 26 -25 33 0 8 -9 17 -20 20 -11 3 -20 10 -20 14 0 4 -17 16 -37 27 -21 10
-46 25 -56 34 -14 11 -51 15 -145 16 -70 1 -140 0 -157 -3z m430 -233 c3 -6
-4 -10 -17 -10 -18 0 -20 2 -8 10 19 12 18 12 25 0z m-555 -230 c0 -5 -2 -10
-4 -10 -3 0 -8 5 -11 10 -3 6 -1 10 4 10 6 0 11 -4 11 -10z m-17 -35 c1 -5 -6
-11 -15 -13 -11 -2 -18 3 -18 13 0 17 30 18 33 0z"/>
<path d="M8040 2168 c-41 -5 -77 -13 -80 -17 -3 -5 -27 -16 -53 -25 -70 -23
-144 -67 -201 -117 -55 -49 -52 -47 -101 -109 -19 -25 -39 -50 -44 -56 -4 -5
-17 -28 -27 -50 -10 -21 -21 -41 -24 -44 -4 -3 -10 -16 -13 -30 -4 -14 -13
-50 -20 -80 -7 -30 -18 -64 -23 -75 -13 -29 -11 -253 3 -300 6 -22 19 -70 28
-107 10 -38 21 -68 25 -68 4 0 10 -15 14 -32 5 -24 2 -36 -9 -44 -15 -11 -21
-34 -8 -34 3 0 14 7 24 16 16 14 19 13 38 -7 12 -13 21 -29 21 -36 0 -7 4 -13
8 -13 5 0 15 -11 22 -25 7 -14 22 -25 32 -25 20 0 25 -16 6 -22 -9 -3 -8 -9 5
-22 16 -17 17 -16 17 13 0 30 2 31 43 31 36 0 45 -5 65 -33 12 -17 22 -26 22
-19 0 20 41 13 61 -10 10 -13 18 -33 19 -45 0 -18 6 -23 25 -23 18 0 25 5 25
20 0 22 35 29 43 8 3 -10 9 -10 25 -1 16 10 21 9 26 -2 8 -22 27 -18 33 6 4
13 12 19 22 16 13 -3 15 4 13 47 -2 28 -9 56 -16 61 -7 6 -15 18 -19 28 -3 9
-13 17 -22 17 -11 0 -15 12 -17 48 l-1 47 -4 -42 c-4 -39 -6 -42 -41 -47 -20
-2 -54 -5 -74 -5 -33 0 -38 3 -38 22 -1 30 -21 54 -52 62 -21 6 -27 14 -32 50
-8 52 -28 74 -51 55 -8 -7 -15 -20 -15 -30 0 -19 -23 -43 -33 -34 -3 3 -16 -3
-28 -15 -37 -34 -49 -27 -49 28 0 27 4 61 10 75 7 19 6 24 -3 21 -7 -3 -25 -1
-42 3 -29 8 -29 9 -7 16 12 4 22 14 22 22 0 13 5 16 40 18 11 1 14 11 12 43
-2 22 1 44 6 47 17 10 72 -6 72 -20 0 -23 48 -17 55 6 4 11 12 20 18 19 7 -1
31 -1 55 0 l43 1 -6 34 c-6 28 -3 36 14 45 18 10 21 8 27 -14 3 -14 14 -30 23
-35 13 -8 14 -11 2 -19 -23 -15 39 -16 547 -13 l482 4 0 77 c0 42 -4 81 -9 87
-5 5 -11 27 -14 49 -10 73 -26 133 -47 172 -11 21 -20 46 -20 55 0 10 -4 18
-10 18 -5 0 -10 7 -10 15 0 8 -4 15 -10 15 -5 0 -10 7 -10 15 0 8 -9 20 -20
27 -11 7 -20 16 -20 21 0 9 -17 31 -48 60 -92 86 -116 105 -163 129 -96 48
-153 67 -232 78 -92 12 -222 11 -327 -2z m200 -168 c0 -6 26 -10 58 -10 34 0
80 -8 112 -20 30 -12 63 -23 73 -27 9 -3 17 -9 17 -14 0 -5 6 -9 13 -9 18 0
134 -113 142 -140 4 -12 16 -31 26 -41 10 -10 19 -28 19 -39 0 -11 5 -20 10
-20 6 0 10 -8 10 -18 0 -10 3 -22 7 -26 11 -11 33 -79 33 -103 l0 -23 -419 0
c-231 0 -426 -2 -434 -5 -8 -4 -29 9 -50 30 -19 19 -40 35 -46 35 -14 0 -15
-27 -1 -35 27 -17 2 -25 -76 -25 l-86 0 6 28 c4 15 12 50 17 77 6 28 17 57 24
65 7 8 17 27 20 43 4 15 11 27 16 27 5 0 9 7 9 15 0 8 5 15 10 15 6 0 10 5 10
11 0 16 121 129 138 129 5 0 17 8 28 18 31 28 124 52 202 52 41 0 72 4 72 10
0 6 9 10 20 10 11 0 20 -4 20 -10z m-280 -590 c0 -5 -4 -10 -10 -10 -5 0 -10
5 -10 10 0 6 5 10 10 10 6 0 10 -4 10 -10z"/>
<path d="M2320 2151 c-8 -5 -46 -14 -85 -21 -59 -11 -208 -70 -225 -89 -3 -3
-17 -12 -32 -20 -16 -8 -28 -18 -28 -22 0 -5 -13 -15 -30 -24 -16 -9 -30 -22
-30 -30 0 -7 -9 -17 -20 -20 -11 -3 -20 -12 -20 -18 0 -7 -9 -18 -20 -25 -11
-7 -20 -19 -20 -27 0 -7 -8 -20 -18 -27 -10 -7 -24 -28 -31 -45 -7 -18 -17
-33 -22 -33 -4 0 -11 -16 -15 -35 -3 -19 -10 -38 -15 -41 -5 -3 -9 -16 -9 -29
0 -13 -4 -26 -9 -29 -15 -10 -24 -98 -24 -226 1 -131 9 -206 24 -216 5 -3 9
-16 9 -29 0 -13 4 -26 9 -29 5 -3 12 -22 15 -41 4 -19 11 -35 15 -35 5 0 14
-15 22 -32 7 -18 16 -35 19 -38 3 -3 17 -21 30 -40 33 -47 112 -130 125 -130
6 0 16 -9 23 -20 7 -11 19 -20 27 -20 8 0 15 -4 15 -8 0 -4 21 -17 46 -27 26
-11 52 -24 58 -30 14 -14 96 -36 159 -42 26 -3 47 -9 47 -14 0 -5 54 -9 120
-9 73 0 120 4 120 10 0 6 14 10 30 10 32 0 152 30 160 40 3 3 21 12 40 20 19
7 44 22 56 32 11 10 25 18 32 18 6 0 17 8 24 18 7 11 24 25 38 32 14 7 39 29
55 48 17 19 37 42 45 52 22 25 40 53 46 73 4 9 10 17 14 17 5 0 18 26 30 57
12 32 26 61 32 64 6 4 8 14 5 23 -5 13 -23 16 -97 16 -99 0 -107 -4 -131 -57
-7 -18 -17 -33 -20 -33 -4 0 -14 -16 -23 -35 -9 -19 -23 -35 -31 -35 -8 0 -15
-5 -15 -12 0 -15 -60 -68 -77 -68 -7 0 -13 -4 -13 -9 0 -5 -10 -13 -22 -17
-13 -4 -34 -15 -47 -25 -13 -11 -37 -19 -52 -19 -16 0 -29 -3 -29 -8 0 -10
-119 -32 -177 -32 -49 0 -164 20 -173 30 -3 3 -24 12 -47 20 -24 7 -43 17 -43
22 0 4 -7 8 -16 8 -26 0 -174 127 -174 150 0 4 -7 13 -15 20 -8 7 -15 21 -15
30 0 10 -5 20 -10 22 -6 2 -24 41 -40 88 -38 110 -42 252 -9 358 30 96 40 122
50 122 5 0 9 8 9 19 0 10 7 24 15 31 8 7 15 17 15 22 0 8 39 46 105 102 16 14
42 31 57 37 15 6 28 15 28 20 0 5 9 9 19 9 11 0 23 5 26 10 3 6 15 10 25 10
10 0 20 6 22 12 6 17 318 18 339 2 8 -6 33 -16 57 -24 23 -7 42 -16 42 -19 0
-3 18 -15 40 -25 45 -22 150 -115 150 -132 0 -6 7 -17 15 -24 9 -7 23 -29 32
-49 28 -58 34 -61 131 -61 49 0 91 3 94 6 7 6 -46 138 -62 154 -3 3 -14 21
-24 40 -11 19 -34 48 -50 66 -17 17 -41 42 -53 55 -25 28 -50 49 -58 49 -3 0
-14 8 -24 18 -30 27 -44 36 -81 53 -93 44 -131 57 -197 69 -40 7 -73 17 -73
22 0 11 -190 10 -210 -1z"/>
<path d="M3675 2150 c-3 -5 -2 -10 3 -10 15 0 13 -68 -3 -74 -8 -3 -15 -12
-15 -21 0 -10 -10 -15 -27 -15 -16 0 -38 -3 -50 -6 -36 -10 -30 28 7 44 17 8
30 20 30 27 0 7 6 16 13 18 6 3 -7 6 -31 6 -53 1 -75 -10 -129 -66 -23 -24
-47 -43 -53 -43 -5 0 -11 -6 -12 -12 -1 -7 -4 21 -7 62 l-6 75 -85 0 -85 0 0
-735 0 -735 90 0 90 0 3 494 c2 395 6 501 17 525 7 17 17 56 21 86 7 59 22 90
42 90 6 0 20 9 29 20 10 11 23 20 30 20 7 0 13 4 13 8 0 9 80 32 115 32 13 0
27 5 30 10 3 6 15 10 26 10 18 0 20 6 18 83 -2 45 -7 90 -13 100 -12 18 -51
23 -61 7z"/>
<path d="M3823 2134 c-17 -7 -18 -145 -1 -162 9 -9 9 -15 0 -24 -7 -7 -12 -26
-12 -44 0 -32 13 -44 51 -44 10 0 19 -4 19 -9 0 -11 -25 -21 -51 -21 -18 0
-19 -7 -18 -111 l2 -111 39 6 c22 4 42 7 46 7 4 1 22 1 40 0 48 -2 39 -18 -15
-26 -76 -10 -115 -27 -107 -45 3 -8 8 -22 11 -31 3 -11 13 -14 35 -11 21 3 29
1 24 -7 -4 -6 -16 -11 -26 -11 -11 0 -24 -9 -30 -19 -12 -24 -47 -36 -63 -22
-9 6 -18 7 -27 0 -13 -9 -12 -12 4 -22 63 -38 66 -47 66 -178 0 -107 2 -120
15 -109 8 7 15 19 15 26 0 8 5 14 10 14 19 0 10 -38 -15 -68 -27 -32 -34 -89
-13 -110 9 -9 9 -15 0 -24 -8 -8 -12 -58 -12 -160 0 -171 -7 -161 115 -156
l70 3 0 735 0 735 -80 2 c-44 1 -86 -1 -92 -3z m157 -195 c0 -15 -5 -20 -22
-17 -34 5 -37 38 -4 38 20 0 26 -5 26 -21z m-140 -574 c0 -8 -4 -15 -10 -15
-5 0 -7 7 -4 15 4 8 8 15 10 15 2 0 4 -7 4 -15z m47 -121 c-3 -3 -12 -4 -19
-1 -8 3 -5 6 6 6 11 1 17 -2 13 -5z"/>
<path d="M6948 1936 c-10 -7 -18 -18 -18 -25 0 -6 -4 -11 -10 -11 -5 0 -10 -7
-10 -15 0 -8 5 -15 10 -15 6 0 10 -6 10 -14 0 -31 68 -35 93 -6 26 31 21 62
-14 83 -36 20 -39 20 -61 3z"/>
<path d="M7300 1590 c0 -5 5 -10 11 -10 5 0 7 5 4 10 -3 6 -8 10 -11 10 -2 0
-4 -4 -4 -10z"/>
<path d="M3547 1558 c-2 -7 -1 -22 4 -33 4 -11 8 -14 8 -7 1 6 8 12 16 12 8 0
15 9 15 20 0 22 -35 29 -43 8z"/>
<path d="M3560 1393 c0 -5 4 -14 9 -22 7 -11 11 -9 20 8 10 18 9 21 -9 21 -11
0 -20 -3 -20 -7z"/>
<path d="M7166 1272 c-3 -6 -1 -14 5 -17 15 -10 25 3 12 16 -7 7 -13 7 -17 1z"/>
<path d="M7945 1271 c-3 -5 -1 -12 5 -16 5 -3 10 1 10 9 0 18 -6 21 -15 7z"/>
<path d="M7720 1226 c0 -30 13 -40 41 -31 31 10 21 49 -13 53 -24 3 -28 0 -28
-22z"/>
<path d="M7105 1143 c-3 -8 -5 -38 -5 -66 0 -39 5 -56 22 -74 l22 -24 -21 -5
c-18 -5 -20 -10 -13 -33 4 -15 4 -35 -2 -44 -5 -9 -7 -65 -6 -124 l3 -108 78
-3 c106 -4 137 10 137 60 0 27 -4 38 -15 38 -12 0 -15 22 -17 118 l-3 117 -67
3 c-60 3 -67 5 -70 25 -2 12 2 42 9 67 7 25 13 50 13 56 0 16 -58 13 -65 -3z"/>
<path d="M8711 1123 c-6 -7 -11 -16 -11 -21 0 -5 -11 -22 -25 -38 -14 -16 -25
-33 -25 -39 -1 -19 -27 -44 -53 -50 -21 -6 -27 -4 -27 10 0 9 -6 15 -12 13
-18 -6 -23 -39 -8 -48 19 -12 5 -38 -27 -52 -15 -7 -30 -15 -33 -18 -11 -12
-51 -30 -65 -30 -8 0 -15 -4 -15 -9 0 -5 -15 -11 -32 -14 -18 -3 -43 -8 -55
-12 -16 -5 -23 -2 -28 14 -9 29 -71 30 -80 1 -3 -11 -13 -20 -21 -20 -10 0
-14 -12 -14 -42 0 -24 -3 -53 -6 -65 -8 -28 -38 -30 -56 -5 -12 17 -15 17 -53
-3 -36 -18 -39 -22 -30 -42 10 -23 13 -23 182 -23 109 0 173 4 173 10 0 6 13
10 29 10 17 0 32 4 35 9 4 5 24 12 46 16 22 4 42 11 46 16 3 5 22 16 42 24 20
9 43 22 51 29 45 39 191 188 191 195 0 4 8 16 18 27 20 21 52 86 52 104 0 6 7
19 16 28 15 14 15 16 -3 23 -36 13 -190 15 -202 2z"/>
<path d="M7260 1070 c0 -11 7 -20 15 -20 8 0 15 9 15 20 0 11 -7 20 -15 20 -8
0 -15 -9 -15 -20z"/>
<path d="M8210 943 c-33 -13 -41 -53 -11 -53 11 0 21 -6 23 -12 3 -9 10 -8 23
5 14 15 16 23 7 43 -12 25 -16 27 -42 17z"/>
<path d="M7327 853 c-13 -13 -7 -32 8 -27 8 4 15 12 15 20 0 15 -12 19 -23 7z"/>
<path d="M8892 700 c0 -14 2 -19 5 -12 2 6 2 18 0 25 -3 6 -5 1 -5 -13z"/>
<path d="M7874 665 c-9 -23 0 -50 19 -53 13 -3 17 3 17 26 0 32 -27 52 -36 27z"/>
<path d="M8255 530 c-10 -16 7 -31 23 -21 10 6 10 10 -2 20 -10 9 -16 9 -21 1z"/>
<path d="M8678 523 c7 -3 16 -2 19 1 4 3 -2 6 -13 5 -11 0 -14 -3 -6 -6z"/>
<path d="M8550 450 c0 -5 -10 -10 -22 -10 -22 -1 -23 -1 -4 -15 23 -17 35 -18
55 -6 12 8 12 12 -2 25 -18 18 -27 20 -27 6z"/>
<path d="M8426 373 c-12 -12 -5 -23 14 -23 11 0 20 4 20 9 0 11 -26 22 -34 14z"/>
<path d="M8348 326 c-22 -16 -22 -22 -3 -30 23 -8 45 4 45 25 0 22 -17 24 -42
5z"/>
<path d="M8220 261 c0 -15 6 -21 21 -21 25 0 22 33 -4 38 -12 2 -17 -3 -17
-17z"/>
</g>
</svg>
